name Visual3d_SIMM_grf.mot
datacolumns 19
datarows 56
range 0.570000 1.120000
endheader
time	ground_force_vx	ground_force_vy	ground_force_vz	ground_force_px	ground_force_py	ground_force_pz	l_ground_force_vx	l_ground_force_vy	l_ground_force_vz	l_ground_force_px	l_ground_force_py	l_ground_force_pz	ground_torque_x	ground_torque_y	ground_torque_z	l_ground_torque_x	l_ground_torque_y	l_ground_torque_z
0.570000	0.000000	0.000000	0.000000	0.000000	0.000000	0.000000	-1.797338	164.437622	-35.790318	0.339749	-0.007427	-0.252156	0.000000	0.000000	0.000000	-0.002976	0.227583	0.004387
0.580000	0.000000	0.000000	0.000000	0.000000	0.000000	0.000000	-2.807781	175.799530	-38.679569	0.340398	-0.007374	-0.251525	0.000000	0.000000	0.000000	-0.003129	0.239294	0.004612
0.590000	0.000000	0.000000	0.000000	0.000000	0.000000	0.000000	-4.093313	186.581818	-41.070171	0.340917	-0.007278	-0.251069	0.000000	0.000000	0.000000	-0.003315	0.253520	0.004887
0.600000	0.000000	0.000000	0.000000	0.000000	0.000000	0.000000	-5.500829	196.736511	-42.879700	0.341327	-0.007149	-0.250710	0.000000	0.000000	0.000000	-0.003447	0.263655	0.005082
0.610000	0.000000	0.000000	0.000000	0.000000	0.000000	0.000000	-6.900342	206.195755	-44.024399	0.341653	-0.006996	-0.250430	0.000000	0.000000	0.000000	-0.003446	0.263596	0.005081
0.620000	0.000000	0.000000	0.000000	0.000000	0.000000	0.000000	-8.211694	214.903717	-44.466084	0.341906	-0.006830	-0.250234	0.000000	0.000000	0.000000	-0.003269	0.250016	0.004819
0.630000	0.000000	0.000000	0.000000	0.000000	0.000000	0.000000	-9.403374	222.801376	-44.228062	0.342087	-0.006661	-0.250125	0.000000	0.000000	0.000000	-0.002915	0.222919	0.004297
0.640000	0.000000	0.000000	0.000000	0.000000	0.000000	0.000000	-10.467743	229.804993	-43.399021	0.342192	-0.006503	-0.250094	0.000000	0.000000	0.000000	-0.002413	0.184589	0.003558
0.650000	0.000000	0.000000	0.000000	0.000000	0.000000	0.000000	-11.398134	235.791702	-42.121075	0.342215	-0.006370	-0.250123	0.000000	0.000000	0.000000	-0.001809	0.138384	0.002667
0.660000	0.000000	0.000000	0.000000	0.000000	0.000000	0.000000	-12.183039	240.609283	-40.557629	0.342157	-0.006272	-0.250186	0.000000	0.000000	0.000000	-0.001155	0.088331	0.001703
0.670000	0.000000	0.000000	0.000000	0.000000	0.000000	0.000000	-12.822586	244.141754	-38.848789	0.342016	-0.006212	-0.250270	0.000000	0.000000	0.000000	-0.000502	0.038423	0.000741
0.680000	0.000000	0.000000	0.000000	0.000000	0.000000	0.000000	-13.336851	246.400146	-37.096397	0.341799	-0.006181	-0.250373	0.000000	0.000000	0.000000	0.000104	-0.007943	-0.000153
0.690000	0.000000	0.000000	0.000000	0.000000	0.000000	0.000000	-13.765025	247.591888	-35.357212	0.341520	-0.006163	-0.250503	0.000000	0.000000	0.000000	0.000628	-0.048019	-0.000926
0.700000	0.000000	0.000000	0.000000	0.000000	0.000000	0.000000	-14.145098	248.115616	-33.641388	0.341190	-0.006139	-0.250674	0.000000	0.000000	0.000000	0.001044	-0.079817	-0.001538
0.710000	0.000000	0.000000	0.000000	0.000000	0.000000	0.000000	-14.496197	248.453705	-31.918085	0.340808	-0.006092	-0.250901	0.000000	0.000000	0.000000	0.001339	-0.102431	-0.001974
0.720000	0.000000	0.000000	0.000000	0.000000	0.000000	0.000000	-14.808409	248.975281	-30.151932	0.340376	-0.006015	-0.251189	0.000000	0.000000	0.000000	0.001532	-0.117185	-0.002259
0.730000	0.000000	0.000000	0.000000	0.000000	0.000000	0.000000	-15.055384	249.809357	-28.326813	0.339899	-0.005910	-0.251527	0.000000	0.000000	0.000000	0.001664	-0.127291	-0.002454
0.740000	0.000000	0.000000	0.000000	0.000000	0.000000	0.000000	-15.208927	250.859222	-26.454422	0.339375	-0.005785	-0.251899	0.000000	0.000000	0.000000	0.001769	-0.135276	-0.002607
0.750000	0.000000	0.000000	0.000000	0.000000	0.000000	0.000000	-15.256341	251.915451	-24.562473	0.338808	-0.005648	-0.252281	0.000000	0.000000	0.000000	0.001861	-0.142350	-0.002744
0.760000	0.000000	0.000000	0.000000	0.000000	0.000000	0.000000	-15.208839	252.764969	-22.675499	0.338202	-0.005504	-0.252660	0.000000	0.000000	0.000000	0.001955	-0.149551	-0.002883
0.770000	0.000000	0.000000	0.000000	0.000000	0.000000	0.000000	-15.095755	253.309555	-20.789642	0.337565	-0.005353	-0.253034	0.000000	0.000000	0.000000	0.002060	-0.157562	-0.003037
0.780000	0.000000	0.000000	0.000000	0.000000	0.000000	0.000000	-14.948293	253.619064	-18.872448	0.336907	-0.005193	-0.253410	0.000000	0.000000	0.000000	0.002195	-0.167849	-0.003235
0.790000	0.000000	0.000000	0.000000	0.000000	0.000000	0.000000	-14.783676	253.875351	-16.875025	0.336222	-0.005027	-0.253799	0.000000	0.000000	0.000000	0.002371	-0.181361	-0.003496
0.800000	0.000000	0.000000	0.000000	0.000000	0.000000	0.000000	-14.597052	254.219620	-14.773485	0.335505	-0.004864	-0.254209	0.000000	0.000000	0.000000	0.002589	-0.197978	-0.003816
0.810000	0.000000	0.000000	0.000000	0.000000	0.000000	0.000000	-14.375555	254.586563	-12.624646	0.334763	-0.004716	-0.254620	0.000000	0.000000	0.000000	0.002848	-0.217792	-0.004198
0.820000	0.000000	0.000000	0.000000	0.000000	0.000000	0.000000	-14.112755	254.661255	-10.564638	0.334011	-0.004596	-0.255001	0.000000	0.000000	0.000000	0.003144	-0.240470	-0.004635
0.830000	0.000000	0.000000	0.000000	0.000000	0.000000	0.000000	-13.835986	253.987473	-8.761897	0.333280	-0.004505	-0.255318	0.000000	0.000000	0.000000	0.003462	-0.264752	-0.005103
0.840000	0.000000	0.000000	0.000000	0.000000	0.000000	0.000000	-13.611047	252.181915	-7.352777	0.332612	-0.004433	-0.255544	0.000000	0.000000	0.000000	0.003773	-0.288554	-0.005562
0.850000	0.000000	0.000000	0.000000	0.000000	0.000000	0.000000	-13.525335	249.135498	-6.375885	0.332042	-0.004365	-0.255669	0.000000	0.000000	0.000000	0.004047	-0.309490	-0.005965
0.860000	0.000000	0.000000	0.000000	0.000000	0.000000	0.000000	-13.655139	245.081558	-5.752392	0.331582	-0.004281	-0.255717	0.000000	0.000000	0.000000	0.004259	-0.325719	-0.006278
0.870000	0.000000	0.000000	0.000000	0.000000	0.000000	0.000000	-14.031351	240.576218	-5.288842	0.331219	-0.004168	-0.255745	0.000000	0.000000	0.000000	0.004408	-0.337116	-0.006498
0.880000	0.000000	0.000000	0.000000	0.000000	0.000000	0.000000	-14.618309	236.408203	-4.705587	0.330921	-0.004017	-0.255835	0.000000	0.000000	0.000000	0.004514	-0.345234	-0.006654
0.890000	0.000000	0.000000	0.000000	0.000000	0.000000	0.000000	-15.317793	233.417068	-3.707705	0.330632	-0.003837	-0.256071	0.000000	0.000000	0.000000	0.004622	-0.353502	-0.006814
0.900000	0.000000	0.000000	0.000000	0.000000	0.000000	0.000000	-15.990462	232.215057	-2.086500	0.330297	-0.003646	-0.256507	0.000000	0.000000	0.000000	0.004797	-0.366911	-0.007072
0.910000	0.000000	0.000000	0.000000	0.000000	0.000000	0.000000	-16.490810	232.969147	0.180511	0.329868	-0.003475	-0.257133	0.000000	0.000000	0.000000	0.005091	-0.389368	-0.007505
0.920000	0.000000	0.000000	0.000000	0.000000	0.000000	0.000000	-16.709723	235.381775	2.912307	0.329328	-0.003347	-0.257883	0.000000	0.000000	0.000000	0.005519	-0.422132	-0.008137
0.930000	0.000000	0.000000	0.000000	0.000000	0.000000	0.000000	-16.607712	238.909988	5.834269	0.328681	-0.003273	-0.258669	0.000000	0.000000	0.000000	0.006070	-0.464230	-0.008948
0.940000	0.000000	0.000000	0.000000	0.000000	0.000000	0.000000	-16.226303	243.030090	8.717717	0.327951	-0.003247	-0.259421	0.000000	0.000000	0.000000	0.006708	-0.513059	-0.009889
0.950000	0.000000	0.000000	0.000000	0.000000	0.000000	0.000000	-15.677293	247.395966	11.453361	0.327174	-0.003248	-0.260098	0.000000	0.000000	0.000000	0.007371	-0.563762	-0.010867
0.960000	0.000000	0.000000	0.000000	0.000000	0.000000	0.000000	-15.108013	251.838028	14.041168	0.326388	-0.003256	-0.260691	0.000000	0.000000	0.000000	0.007996	-0.611587	-0.011788
0.970000	0.000000	0.000000	0.000000	0.000000	0.000000	0.000000	-14.657014	256.290222	16.544264	0.325647	-0.003257	-0.261204	0.000000	0.000000	0.000000	0.008543	-0.653371	-0.012594
0.980000	0.000000	0.000000	0.000000	0.000000	0.000000	0.000000	-14.416405	260.699402	19.036190	0.324997	-0.003248	-0.261652	0.000000	0.000000	0.000000	0.008981	-0.686898	-0.013240
0.990000	0.000000	0.000000	0.000000	0.000000	0.000000	0.000000	-14.417731	264.969635	21.576736	0.324467	-0.003239	-0.262048	0.000000	0.000000	0.000000	0.009306	-0.711776	-0.013720
1.000000	0.000000	0.000000	0.000000	0.000000	0.000000	0.000000	-14.634154	268.962433	24.218714	0.324061	-0.003246	-0.262414	0.000000	0.000000	0.000000	0.009531	-0.728985	-0.014051
1.010000	0.000000	0.000000	0.000000	0.000000	0.000000	0.000000	-15.001716	272.544281	27.013346	0.323764	-0.003278	-0.262762	0.000000	0.000000	0.000000	0.009685	-0.740712	-0.014277
1.020000	0.000000	0.000000	0.000000	0.000000	0.000000	0.000000	-15.452250	275.561829	30.014017	0.323545	-0.003337	-0.263098	0.000000	0.000000	0.000000	0.009802	-0.749677	-0.014450
1.030000	0.000000	0.000000	0.000000	0.000000	0.000000	0.000000	-15.930424	277.818695	33.266460	0.323374	-0.003417	-0.263423	0.000000	0.000000	0.000000	0.009917	-0.758457	-0.014619
1.040000	0.000000	0.000000	0.000000	0.000000	0.000000	0.000000	-16.395205	279.080658	36.790264	0.323230	-0.003504	-0.263743	0.000000	0.000000	0.000000	0.010033	-0.767338	-0.014790
1.050000	0.000000	0.000000	0.000000	0.000000	0.000000	0.000000	-16.816240	279.094055	40.567520	0.323113	-0.003584	-0.264062	0.000000	0.000000	0.000000	0.010122	-0.774170	-0.014922
1.060000	0.000000	0.000000	0.000000	0.000000	0.000000	0.000000	-17.168800	277.585663	44.516792	0.323028	-0.003639	-0.264381	0.000000	0.000000	0.000000	0.010144	-0.775851	-0.014955
1.070000	0.000000	0.000000	0.000000	0.000000	0.000000	0.000000	-17.429598	274.269836	48.475475	0.322973	-0.003650	-0.264701	0.000000	0.000000	0.000000	0.010048	-0.768510	-0.014813
1.080000	-0.986900	20.745377	-1.374750	0.201271	-0.005121	0.199965	-17.567217	268.841644	52.198414	0.322932	-0.003601	-0.265037	0.001922	0.282719	-0.005043	0.009771	-0.747315	-0.014405
1.090000	-1.271498	32.066429	-1.286134	0.200365	-0.004899	0.200800	-17.535755	260.978241	55.364799	0.322878	-0.003475	-0.265422	0.001811	0.266342	-0.004751	0.009266	-0.708694	-0.013660
1.100000	-1.425024	44.753723	-1.102496	0.199596	-0.004487	0.202400	-17.274223	250.354706	57.602928	0.322773	-0.003260	-0.265927	0.001632	0.240064	-0.004282	0.008501	-0.650193	-0.012533
1.110000	-1.341365	57.862812	-1.138378	0.199006	-0.003849	0.205425	-16.714262	236.705322	58.536690	0.322576	-0.002949	-0.266659	0.001392	0.204795	-0.003653	0.007468	-0.571176	-0.011009
1.120000	-0.913083	70.637726	-2.029531	0.198599	-0.002940	0.210497	-15.789802	219.870346	57.850483	0.322233	-0.002543	-0.267757	0.001123	0.165127	-0.002945	0.006196	-0.473913	-0.009135
